<?xml version="1.0" encoding="UTF-8" standalone="no"?>
<!-- Created with Inkscape (http://www.inkscape.org/) -->

<svg
   width="210mm"
   height="297mm"
   viewBox="0 0 210 297"
   version="1.1"
   id="svg1"
   sodipodi:docname="hours.svg"
   inkscape:version="1.3.2 (1:1.3.2+202311252150+091e20ef0f)"
   xmlns:inkscape="http://www.inkscape.org/namespaces/inkscape"
   xmlns:sodipodi="http://sodipodi.sourceforge.net/DTD/sodipodi-0.dtd"
   xmlns="http://www.w3.org/2000/svg"
   xmlns:svg="http://www.w3.org/2000/svg">
  <sodipodi:namedview
     id="namedview1"
     pagecolor="#ffffff"
     bordercolor="#000000"
     borderopacity="0.25"
     inkscape:showpageshadow="2"
     inkscape:pageopacity="0.0"
     inkscape:pagecheckerboard="0"
     inkscape:deskcolor="#d1d1d1"
     inkscape:document-units="mm"
     inkscape:zoom="0.85299175"
     inkscape:cx="-28.136263"
     inkscape:cy="510.55593"
     inkscape:window-width="1920"
     inkscape:window-height="995"
     inkscape:window-x="0"
     inkscape:window-y="835"
     inkscape:window-maximized="1"
     inkscape:current-layer="layer1" />
  <defs
     id="defs1" />
  <g
     inkscape:label="Layer 1"
     inkscape:groupmode="layer"
     id="layer1">
    <path
       style="fill:#603434;fill-opacity:1;stroke-width:0.250207"
       d="m 70.17682,32.656751 c 0,0 30.93519,31.32402 6.090215,37.239765 -24.844985,5.915747 -28.917156,1.093136 -28.917156,1.093136 0,0 34.456337,13.609174 22.890673,22.364351 -11.565663,8.755177 -28.570685,1.144016 -28.570685,1.144016 0,0 38.997557,20.393001 16.146094,41.360761 -22.851464,20.96776 3.452709,59.1688 3.452709,59.1688 0,0 12.289928,14.68531 20.56372,18.50949 8.273796,3.82418 27.78043,5.79893 35.61593,0.3777 7.83548,-5.42123 30.22115,-22.09827 29.78041,-41.09371 -0.46518,-20.04878 -12.13838,-32.84266 -12.13838,-32.84266 l 16.31375,-7.64043 -30.08644,-14.58033 30.31109,-13.4785 L 121.54229,92.127889 148.0173,81.695871 119.66631,64.990511 129.18808,32.410737 100.85176,8.1421272 Z"
       id="path5"
       sodipodi:nodetypes="cscscscssscccccccccc" />
    <path
       style="fill:#220909;fill-opacity:1;stroke-width:0.223656"
       d="m 76.913257,42.636221 c 0,0 24.718163,31.32402 4.866266,37.239766 -19.8519,5.91575 -23.105692,1.09313 -23.105692,1.09313 0,0 27.531666,13.60918 18.290345,22.364353 -9.241312,8.75517 -22.828846,1.14401 -22.828846,1.14401 0,0 31.160235,20.393 12.901224,41.36076 -18.259018,20.96776 2.758821,59.1688 2.758821,59.1688 0,0 9.038166,7.26872 15.649181,11.0929 6.611014,3.82418 24.207194,5.32207 30.467994,-0.0992 6.26079,-5.42123 22.9197,-14.20482 22.56753,-33.20026 -0.37169,-20.04878 -9.69894,-32.84266 -9.69894,-32.84266 l 13.03518,-7.64043 -24.03998,-14.58033 24.21948,-13.4785 -24.03999,-12.15125 21.15434,-10.432013 -22.65331,-16.705356 7.60819,-32.579774 -22.64159,-24.26861 z"
       id="path5-2"
       sodipodi:nodetypes="cscscscssscccccccccc" />
    <ellipse
       style="fill:#d70000;fill-opacity:1;stroke-width:0.264583"
       id="path6"
       cx="100.35078"
       cy="44.219074"
       rx="11.769224"
       ry="10.466841" />
    <ellipse
       style="fill:#000000;fill-opacity:1;stroke-width:0.264583"
       id="path7"
       cx="101.26248"
       cy="44.820984"
       rx="2.4841883"
       ry="2.1463079" />
    <ellipse
       style="fill:#000000;fill-opacity:1;stroke-width:0.264583"
       id="path8"
       cx="95.972145"
       cy="41.944221"
       rx="1.8469733"
       ry="1.9620801" />
    <ellipse
       style="fill:#000000;fill-opacity:1;stroke-width:0.264583"
       id="path10"
       cx="104.3531"
       cy="50.821121"
       rx="1.0651931"
       ry="0.88818312" />
  </g>
</svg>
