<?xml version="1.0" encoding="UTF-8" standalone="no"?>
<!-- Created with Inkscape (http://www.inkscape.org/) -->

<svg
   width="210mm"
   height="297mm"
   viewBox="0 0 210 297"
   version="1.1"
   id="svg1"
   sodipodi:docname="minutes.svg"
   inkscape:version="1.3.2 (1:1.3.2+202311252150+091e20ef0f)"
   xmlns:inkscape="http://www.inkscape.org/namespaces/inkscape"
   xmlns:sodipodi="http://sodipodi.sourceforge.net/DTD/sodipodi-0.dtd"
   xmlns="http://www.w3.org/2000/svg"
   xmlns:svg="http://www.w3.org/2000/svg">
  <sodipodi:namedview
     id="namedview1"
     pagecolor="#ffffff"
     bordercolor="#000000"
     borderopacity="0.25"
     inkscape:showpageshadow="2"
     inkscape:pageopacity="0.0"
     inkscape:pagecheckerboard="0"
     inkscape:deskcolor="#d1d1d1"
     inkscape:document-units="mm"
     inkscape:zoom="1.7059834"
     inkscape:cx="275.794"
     inkscape:cy="478.0234"
     inkscape:window-width="3840"
     inkscape:window-height="2119"
     inkscape:window-x="1920"
     inkscape:window-y="0"
     inkscape:window-maximized="1"
     inkscape:current-layer="layer1" />
  <defs
     id="defs1" />
  <g
     inkscape:label="Layer 1"
     inkscape:groupmode="layer"
     id="layer1">
    <path
       style="fill:#000000;fill-opacity:1;stroke-width:0.257678"
       d="m 100.20557,33.208809 c 0,0 -2.325436,35.156331 -6.528624,40.583541 -4.203185,5.427209 -8.250978,4.813024 -8.250978,4.813024 0,0 11.922147,12.198914 8.709365,21.644766 -3.212782,9.44586 -9.555834,39.82517 -9.555834,39.82517 l 7.211081,-0.22832 -5.945888,22.01903 4.588557,16.45343 -6.768492,14.51609 9.06843,14.54249 9.476983,-11.89721 5.31048,22.9538 12.75241,-29.11168 -9.52329,-16.19198 -7.17819,-14.96661 c 0,0 14.36154,-16.06012 10.17795,-29.63967 -4.18359,-13.57955 -7.26471,-1.41883 -7.26471,-1.41883 0,0 -0.11885,-24.37632 7.66656,-33.571512 7.78539,-9.195186 6.90673,-5.048734 6.90673,-5.048734 L 107.63557,72.897708 103.64324,18.849821 Z"
       id="path3" />
    <path
       style="fill:#a3a3a3;fill-opacity:1;stroke-width:0.22039"
       d="m 100.26207,38.232304 c 0,0 -1.8206,32.849015 -5.111307,37.920035 -3.290716,5.071021 -6.45976,4.49714 -6.45976,4.49714 0,0 9.333947,11.398293 6.818628,20.224211 -2.515312,8.82593 -7.481333,37.21143 -7.481333,37.21143 l 5.645611,-0.21334 -4.655082,20.57393 3.59242,15.37358 -5.299107,13.56339 7.099745,13.58807 7.419605,-11.1164 4.15761,21.44734 9.98396,-27.20108 -7.45585,-15.12928 -5.61987,-13.98436 c 0,0 11.24377,-15.00608 7.9684,-27.69441 -3.27536,-12.68832 -5.6876,-1.32571 -5.6876,-1.32571 0,0 -0.0931,-22.77649 6.00221,-31.368203 6.09524,-8.591697 5.40734,-4.71738 5.40734,-4.71738 L 106.07908,75.316406 102.95345,24.815701 Z"
       id="path3-6" />
    <ellipse
       style="fill:#920000;fill-opacity:1;stroke-width:0.264583"
       id="path4"
       cx="101.3615"
       cy="81.888191"
       rx="2.7159925"
       ry="2.1781611" />
    <ellipse
       style="fill:#920000;fill-opacity:1;stroke-width:0.264583"
       id="path4-9"
       cx="108.13625"
       cy="89.120697"
       rx="2.7159925"
       ry="2.1781611" />
    <ellipse
       style="fill:#920000;fill-opacity:1;stroke-width:0.264583"
       id="path4-9-3"
       cx="106.282"
       cy="131.76137"
       rx="2.7159925"
       ry="2.1781611" />
    <ellipse
       style="fill:#920000;fill-opacity:1;stroke-width:0.264583"
       id="path4-9-3-2"
       cx="94.511139"
       cy="187.3468"
       rx="2.7159925"
       ry="2.1781611" />
  </g>
</svg>
